<svg width="480" height="445" viewBox="0 0 480 445" fill="none" xmlns="http://www.w3.org/2000/svg">
<path d="M200.042 70.6502L312.779 11L111.463 20.673L200.042 70.6502Z" fill="#C0C0C0"/>
<path d="M312.779 11L200.042 70.6502L427.126 122.24L312.779 11Z" fill="#666666"/>
<path d="M346.6 283.456L409.411 435L469 323.76L427.126 122.24L346.6 283.456Z" fill="#1F1F1F"/>
<path d="M200.042 70.6502L216.147 230.255L346.6 283.456L427.126 122.24L200.042 70.6502Z" fill="#939393"/>
<path d="M216.147 230.255L200.042 70.6502L111.463 20.673L10 201.236V354.392L216.147 230.255Z" fill="#E9E9E9"/>
<path d="M346.6 283.456L216.147 230.255L10 354.392L64.7579 435H409.411L346.6 283.456Z" fill="#666666"/>
<path d="M312.779 11L200.042 70.6502M312.779 11L427.126 122.24M312.779 11L111.463 20.673M200.042 70.6502L216.147 230.255M200.042 70.6502L427.126 122.24M200.042 70.6502L111.463 20.673M216.147 230.255L346.6 283.456M216.147 230.255L10 354.392M346.6 283.456L409.411 435M346.6 283.456L427.126 122.24M409.411 435H64.7579L10 354.392M409.411 435L469 323.76L427.126 122.24M10 354.392V201.236L111.463 20.673" stroke="black" stroke-width="20"/>
</svg>
